<svg xmlns="http://www.w3.org/2000/svg" id="Ebene_1" data-name="Ebene 1" viewBox="0 0 502.58 72.6"><defs><style>.cls-1{fill:#009fe3;}.cls-2,.cls-3{fill:#1d1d1b;}.cls-3{font-size:19px;font-family:Roboto-Medium, Roboto;font-weight:500;letter-spacing:0.2em;}.cls-4{letter-spacing:0.21em;}.cls-5{letter-spacing:0.2em;}</style></defs><polygon class="cls-1" points="17.92 0 1.45 42.91 18.12 42.91 34.57 0 17.92 0 17.92 0"></polygon><polygon class="cls-1" points="39.31 0 47.31 21.47 39.31 42.91 55.96 42.91 63.9 21.46 55.96 0 39.31 0 39.31 0"></polygon><polygon class="cls-1" points="36.94 0 20.48 42.91 36.94 42.91 44.94 21.45 36.94 0 36.94 0"></polygon><polygon class="cls-1" points="255.1 63.72 245.06 51.7 231.09 51.7 240.86 63.72 255.1 63.72 255.1 63.72"></polygon><polygon class="cls-1" points="255.1 64.01 245.06 51.99 231.09 51.99 240.86 64.01 255.1 64.01 255.1 64.01"></polygon><path class="cls-2" d="M497,25.83v-9.9H465.75a9.21,9.21,0,0,0-5.23,1.76,14.5,14.5,0,0,0-4.24,4.41,9.73,9.73,0,0,0-1.65,5.13v31h10.72V42h31V32.14h-31L465.29,30a4.5,4.5,0,0,1,1.15-2.71A3.24,3.24,0,0,1,469,25.83Zm-75.92,0h28.06v-9.9H417.89a9.19,9.19,0,0,0-5.23,1.76,14.54,14.54,0,0,0-4.25,4.41,9.8,9.8,0,0,0-1.64,5.13v31h10.71V42h31V32.14h-31L417.43,30a4.44,4.44,0,0,1,1.15-2.71,3.24,3.24,0,0,1,2.51-1.43Zm-21.55,26a12.41,12.41,0,0,0,1.75-6.46V30.16A14.28,14.28,0,0,0,399.11,22a13.55,13.55,0,0,0-5-4.6,11,11,0,0,0-4.74-1.42H360.77A7.88,7.88,0,0,0,357,17a13.76,13.76,0,0,0-3.62,2.89,15,15,0,0,0-2.67,4.21,12.45,12.45,0,0,0-1,5V44.94a14.77,14.77,0,0,0,5.75,11.22,10.21,10.21,0,0,0,6.35,2.1h29a8.22,8.22,0,0,0,4.44-1.73,14.55,14.55,0,0,0,4.27-4.68Zm-9.11-10.43q0,3.22-1.58,4.6A5.71,5.71,0,0,1,385,47.39H366.39a4.67,4.67,0,0,1-4.13-2,9,9,0,0,1-1.43-5V32a4.6,4.6,0,0,1,1.07-2.89A8.53,8.53,0,0,1,364.4,27a5.15,5.15,0,0,1,2.41-.83h16.72c2.39,0,4.13.64,5.24,1.92a6.93,6.93,0,0,1,1.66,4.67v8.71ZM333.11,58.26H344V15.89h-10.9V32h-27V16H295.42V58.26h10.71V42.36h27v15.9ZM278.29,42.75a2.87,2.87,0,0,1,.89,2.29,3,3,0,0,1-1.06,2.4,3.92,3.92,0,0,1-2.56.88H261.11a6.64,6.64,0,0,1-3.39-.88,6.16,6.16,0,0,1-2.36-2.51,8.07,8.07,0,0,1-.87-3.83V31.72a5.08,5.08,0,0,1,.87-2.78,7,7,0,0,1,2.29-2.24,5.72,5.72,0,0,1,3-.87h28.4v-9.9H254.49a9.16,9.16,0,0,0-5.31,1.81A14.78,14.78,0,0,0,245,22.23a9.8,9.8,0,0,0-1.6,5V46.3a9.68,9.68,0,0,0,2,5.82,16.38,16.38,0,0,0,4.88,4.45,10.11,10.11,0,0,0,5,1.69h24.39a9,9,0,0,0,4.28-1,10.35,10.35,0,0,0,3.39-2.86,13.45,13.45,0,0,0,2.18-4.25,17.32,17.32,0,0,0,.76-5.21,13.48,13.48,0,0,0-1.49-6.72,10.83,10.83,0,0,0-3.55-3.9,13.16,13.16,0,0,0-4-1.72l-2.09-.48H265.73V42h10.64a2.89,2.89,0,0,1,1.92.78Zm-39.79-4a7.88,7.88,0,0,0,1-4.35V23.86a8.1,8.1,0,0,0-2.08-5.6,6.47,6.47,0,0,0-5-2.33H191.23v9.86H225a4.64,4.64,0,0,1,1.66.29,2.82,2.82,0,0,1,1.28.94,2.89,2.89,0,0,1,.48,1.74,2.9,2.9,0,0,1-1,2.35,3.11,3.11,0,0,1-2,.83H191.23V58.26h11V42.1h14.06l19.47,23.42H249.8L230.67,42.1a15.87,15.87,0,0,1,2.15-.36,12.76,12.76,0,0,0,3.25-.82,5.42,5.42,0,0,0,2.43-2.14ZM184.93,40a8.12,8.12,0,0,0,1.34-4.76V25a6.22,6.22,0,0,0-.83-3,13.33,13.33,0,0,0-5.17-5.26,6.28,6.28,0,0,0-3-.93H146a7.77,7.77,0,0,0-3.49,1,14.72,14.72,0,0,0-3.59,2.64,14.09,14.09,0,0,0-2.75,3.76,9.25,9.25,0,0,0-1,4.21V45.81a12.08,12.08,0,0,0,1.44,4.92A15.24,15.24,0,0,0,140.78,56a10.2,10.2,0,0,0,6.62,2.26h38.29V48.32H149.42a3,3,0,0,1-2.35-1.39,4.73,4.73,0,0,1-1.1-3V41.86l34.48.06q3.13,0,4.48-1.93Zm-9.32-11-.05,3.2H146V30.46a4.77,4.77,0,0,1,1.17-3.08A3.37,3.37,0,0,1,149.76,26l22.62.06a3.36,3.36,0,0,1,2.23.83,2.66,2.66,0,0,1,1,2.16ZM130.05,54.17a8.38,8.38,0,0,0,.57-2.75V43a5.09,5.09,0,0,0-1.47-3.5,31.86,31.86,0,0,0-4-3.53c1-.92,1.8-1.63,2.26-2.12a5.41,5.41,0,0,0,1.07-1.77,7.42,7.42,0,0,0,.4-2.68v-6a6.9,6.9,0,0,0-1-3.26,9.8,9.8,0,0,0-2.58-3A5.42,5.42,0,0,0,122,15.89H82.22v9.73h0v6.52h0v26H125A4.53,4.53,0,0,0,128.21,57a7,7,0,0,0,1.84-2.8ZM118.29,29a2.75,2.75,0,0,1-1.13,2.35,3.44,3.44,0,0,1-1.87.84H92.93V25.62h22a3,3,0,0,1,2.49,1.14,3.56,3.56,0,0,1,.9,2.19Zm1,16.31a3.15,3.15,0,0,1-.6,1.93,1.94,1.94,0,0,1-1.61.8h-24V42.33h23.63c1.76,0,2.63,1,2.63,2.93Z" transform="translate(-6.56 -15.89)"></path><text class="cls-3" transform="translate(0 64.11)">pure pe<tspan class="cls-4" x="90.31" y="0">r</tspan><tspan class="cls-5" x="100.86" y="0">formance</tspan></text><text class="cls-3" transform="translate(269.25 63.9)">absolute precision</text></svg>